<svg xmlns="http://www.w3.org/2000/svg" xmlns:xlink="http://www.w3.org/1999/xlink" width="153" height="34" viewBox="0 0 153 34">
  <defs>
    <linearGradient id="j2c-nav-logo-a" x1="0%" y1="0%" y2="100%">
      <stop offset="0%" stop-color="#7117EA"/>
      <stop offset="100%" stop-color="#EA6060"/>
    </linearGradient>
    <polygon id="j2c-nav-logo-b" points="5.82 17.53 0 17.53 0 8.849 0 .168 5.82 .168"/>
    <polygon id="j2c-nav-logo-d" points="10.097 .166 10.097 12.623 .193 12.623 .193 .166 10.097 .166"/>
    <polygon id="j2c-nav-logo-f" points=".123 .058 10.617 .058 10.617 8.582 .123 8.582"/>
  </defs>
  <g fill="none" fill-rule="evenodd">
    <rect width="153" height="34" fill="url(#j2c-nav-logo-a)" rx="17"/>
    <g transform="translate(15.647 8.5)">
      <g transform="translate(0 .146)">
        <mask id="j2c-nav-logo-c" fill="#fff">
          <use xlink:href="#j2c-nav-logo-b"/>
        </mask>
        <path fill="#FFF" d="M0,16.891905 C1.28300977,16.2422666 1.9330316,14.8418849 1.9330316,12.7298974 L1.9330316,0.16845348 L5.81970372,0.16845348 L5.81970372,12.7298974 C5.81970372,17.5303323 2.53447529,17.5303323 0.138794697,17.5303323 L0,16.891905 Z" mask="url(#j2c-nav-logo-c)"/>
      </g>
      <path fill="#FFF" d="M13.2102059 7.37330502C11.5431975 7.37330502 10.7659472 8.39046724 10.7659472 10.573595 10.7659472 12.8180786 11.5431975 13.8621477 13.2102059 13.8621477 14.8761629 13.8621477 15.6508896 12.8180786 15.6508896 10.573595 15.6508896 8.39046724 14.8761629 7.37330502 13.2102059 7.37330502M13.2102059 16.8347483C9.34940008 16.8347483 7.38629629 14.7429409 7.37178594 10.6186437 7.37178594 6.48456207 9.33510002 4.38908558 13.2102059 4.38908558 17.0819471 4.38908558 19.0456818 6.48456207 19.0456818 10.6176245 19.0456818 14.7429409 17.0819471 16.8347483 13.2102059 16.8347483M23.7337881 13.4726704C24.2807654 13.6286081 24.9124915 13.7066789 25.6125636 13.7066789 26.6385929 13.7066789 28.0029868 13.3554623 28.0029868 10.3082563 28.0029868 7.8754244 26.835429 7.59330966 25.9547135 7.59330966 25.1524381 7.59330966 24.40526 7.75291648 23.7337881 8.06560723L23.7337881 13.4726704zM25.4975322 16.7357431C23.9886656 16.7357431 22.3391117 16.5751171 20.6024956 16.257738L20.336893 16.2094279 20.336893.314178785 23.7337881.314178785 23.7337881 4.89854321C24.4588852 4.63273568 25.2073251 4.4992204 25.9664901 4.4992204 29.5497065 4.4992204 31.3681273 6.47911954 31.3681273 10.3859194 31.3681273 14.6001101 29.3930367 16.7357431 25.4975322 16.7357431L25.4975322 16.7357431zM37.0798235 16.8459595C35.5312112 16.8459595 34.1173979 16.6184739 32.8741339 16.1675795L32.6594227 16.0903241 32.6594227 12.9324329 33.0945231 13.1156852C34.2656559 13.6099975 35.642247 13.8621477 37.183499 13.8621477 38.6473624 13.8621477 38.6473624 13.225555 38.6473624 12.9860429 38.6473624 12.5891661 38.5403223 12.219604 37.7674882 12.219604L35.7892432 12.219604C33.4000817 12.219604 32.1372603 10.8862857 32.1372603 8.35968738 32.1372603 5.72484992 33.8822881 4.38888174 37.3180878 4.38888174 38.7224378 4.38888174 40.0647507 4.61738652 41.3080147 5.06868856L41.522095 5.14594397 41.522095 8.30526207 41.0863638 8.12058292C39.9160722 7.62504757 38.6252815 7.37330502 37.2482698 7.37330502 35.9719895 7.37330502 35.3230191 7.66826168 35.3230191 8.24900219 35.3230191 8.62855251 35.4412049 9.01625643 36.3090924 9.01625643L38.081038 9.01625643C40.6710312 9.01625643 42.041734 10.3505939 42.041734 12.876173 42.041734 15.5095836 40.3726226 16.8459595 37.0798235 16.8459595"/>
      <g transform="translate(113.77 4.223)">
        <mask id="j2c-nav-logo-e" fill="#fff">
          <use xlink:href="#j2c-nav-logo-d"/>
        </mask>
        <path fill="#FFF" d="M5.13592954,12.6234317 C3.58942014,12.6234317 2.17098039,12.3959461 0.92918844,11.9450517 L0.715528724,11.8677963 L0.715528724,8.7099051 L1.14747465,8.89315737 C2.31881777,9.38746968 3.69730147,9.63961991 5.24107704,9.63961991 C6.70557139,9.63961991 6.70557139,9.0030272 6.70557139,8.76351505 C6.70557139,8.36663833 6.59327386,7.99707618 5.82191182,7.99707618 L3.84471826,7.99707618 C1.45471563,7.99707618 0.192735364,6.66375792 0.192735364,4.13715957 C0.192735364,1.50232211 1.93713236,0.166353926 5.37587613,0.166353926 C6.77896434,0.166353926 8.11959494,0.394858707 9.36012512,0.846160745 L9.57504661,0.923416152 L9.57504661,4.08273426 L9.14162862,3.8980551 C7.97049579,3.40251976 6.68012569,3.1507772 5.30059052,3.1507772 C4.02431019,3.1507772 3.37870455,3.44573386 3.37870455,4.02647438 C3.37870455,4.40602469 3.49668005,4.79372861 4.36120277,4.79372861 L6.13398959,4.79372861 C8.72545483,4.79372861 10.0969988,6.12806607 10.0969988,8.65364523 C10.0969988,11.2870558 8.42935947,12.6234317 5.13592954,12.6234317" mask="url(#j2c-nav-logo-e)"/>
      </g>
      <path fill="#FFF" d="M107.401082 16.7356616L107.401082 9.08839545C107.401082 5.33671794 113.555786 4.44817883 113.555786 4.44817883L113.555786 7.46684725C113.555786 7.46684725 110.652243 8.19027585 110.652243 9.39721324L110.652243 16.7356616 107.401082 16.7356616zM77.6560748 16.7356616L77.6560748 9.08839545C77.6560748 5.33671794 83.8114093 4.44817883 83.8114093 4.44817883L83.8114093 7.46684725C83.8114093 7.46684725 80.907656 8.19027585 80.907656 9.39721324L80.907656 16.7356616 77.6560748 16.7356616zM73.1981994 13.0073645C72.4991788 13.4973962 71.5982751 13.7521964 70.5796061 13.7521964 69.382607 13.7521964 69.2318255 13.2256773 69.2318255 12.765814 69.2318255 12.4969489 69.2318255 11.7800432 70.9007266 11.7800432 71.7864891 11.7800432 72.5740438 11.8367107 73.1981994 11.944746L73.1981994 13.0073645zM70.602318 4.49928155C69.3811349 4.49928155 68.1542739 4.68864903 66.9484424 5.06310334L66.7198518 5.13444738 66.7198518 8.14761212 67.1311888 8.0210274C68.2760347 7.66369566 69.4459058 7.48309331 70.602318 7.48309331 72.2794206 7.48309331 73.1275403 7.89342348 73.1290123 8.7332448L73.1582433 9.06000052C72.4949729 8.95848813 71.7269756 8.9054897 70.9007266 8.9054897 67.5397919 8.9054897 65.835351 10.2151625 65.835351 12.7984284 65.835351 15.411455 67.4331724 16.7356004 70.5796061 16.7356004 71.5124747 16.7356004 72.3380929 16.5458253 73.1981994 16.1289722L73.1981994 16.7356004 76.5204397 16.7356004 76.5204397 8.6453897C76.5204397 5.89456721 74.5287358 4.49928155 70.602318 4.49928155L70.602318 4.49928155zM99.0306054 9.29256172C99.213562 8.05219455 99.8591677 7.46819259 101.041867 7.46024283L101.062476 7.1253335 101.062476 7.46024283C101.731214 7.46024283 102.224145 7.62963397 102.521292 7.96372794 102.779534 8.25399628 102.914754 8.69245639 102.926741 9.26789706L99.0306054 9.29256172zM105.195824 6.00584353C104.368734 5.00458084 103.089509 4.49640741 101.33649 4.49640741 97.5103828 4.52066438 95.5859733 6.54642755 95.604269 10.5172332 95.6267706 14.6401036 97.7210984 16.7315033 101.825216 16.7315033L101.903025 16.7296687C103.436706 16.7213112 104.712986 16.5994149 105.695064 16.3694832L105.94847 16.3103696 105.927861 13.3218695 105.550591 13.3995326C104.481031 13.6206991 103.385184 13.736888 102.304688 13.7438185L102.239917 13.7438185C99.5801062 13.7438185 99.1098866 12.7291024 99.0268201 12.0992364L106.120911 12.0572453 106.1554 11.7698308C106.511009 9.15395043 106.182738 7.2142078 105.195824 6.00584353L105.195824 6.00584353zM87.5332943 9.29256172C87.7109935 8.05219455 88.3555477 7.46819259 89.5382468 7.46024283L89.5632719 7.1253335 89.5632719 7.46024283C90.2275938 7.46024283 90.7215767 7.62963397 91.0191441 7.96372794 91.2769658 8.25399628 91.4128164 8.69245639 91.4243826 9.26789706L87.5332943 9.29256172zM93.6917832 6.00584353C92.8701607 5.00458084 91.5860994 4.49640741 89.8345524 4.49640741 86.0073938 4.52066438 84.0810916 6.54642755 84.1002285 10.5172332 84.1242021 14.6401036 86.21853 16.7315033 90.3226471 16.7315033L90.4004562 16.7296687C91.9341376 16.7213112 93.210418 16.5994149 94.1935471 16.3694832L94.4440084 16.3103696 94.4297084 13.3218695 94.0524391 13.3995326C92.9786729 13.6206991 91.8817742 13.736888 90.8021197 13.7438185L90.7365076 13.7438185C88.0766965 13.7438185 87.6073181 12.7291024 87.5242516 12.0992364L94.618343 12.0572453 94.6566167 11.7698308C95.0084402 9.15395043 94.6841653 7.2142078 93.6917832 6.00584353L93.6917832 6.00584353zM49.9053158 5.16555339C49.9053158 6.0002787 49.5942895 6.93264343 48.955203 7.9571439 49.9528425 8.31977549 51.0743457 8.60168638 52.2770228 8.71522533 52.9600609 7.50217274 53.3026314 6.31704625 53.3026314 5.16555339 53.3026314 1.87272 51.3550895.203880893 47.5167852.203880893 45.9450404.203880893 44.2029567.586692649 42.8084906 1.34151263L42.8084906 1.43548293 42.8084906 4.57706694C42.8084906 4.57706694 45.2214153 3.40865534 47.5167852 3.40865534 49.6594809 3.40865534 49.9053158 4.41052956 49.9053158 5.16555339M49.9734934 11.6915765C48.8561961 11.3593171 47.847411 10.9084228 46.9538676 10.4102375 45.8786293 11.5032283 44.5072956 12.6742898 42.8085326 13.9211798L42.8085326 14.0226922 42.8085326 16.7356004 53.3026735 16.7356004 53.3026735 13.5312337 47.962863 13.5312337C48.7140367 12.9133942 49.3808821 12.2996316 49.9734934 11.6915765"/>
      <g transform="translate(54.256 .146)">
        <mask id="j2c-nav-logo-g" fill="#fff">
          <use xlink:href="#j2c-nav-logo-f"/>
        </mask>
        <path fill="#FFF" d="M3.65343394,7.72403234 C3.78171388,4.71127528 5.43967963,3.24056878 8.71586537,3.24056878 C9.37009311,3.24056878 10.0018193,3.3072245 10.6167218,3.42117113 L10.6167218,0.219454279 C9.94567051,0.117126536 9.24538817,0.0580128997 8.50956598,0.0580128997 C2.9447398,0.0580128997 0.123211838,2.76602897 0.123211838,8.10602873 C0.123211838,8.26971235 0.134778063,8.42238861 0.137722193,8.58158774 C1.33177718,8.47926 2.50480267,8.19266078 3.65343394,7.72403234" mask="url(#j2c-nav-logo-g)"/>
      </g>
      <path fill="#FFF" d="M58.5388086,11.3653916 C57.3645214,11.8003864 56.1853973,12.0796474 54.9995438,12.1925748 C56.1071676,15.2063511 58.7005255,16.7355597 62.7655277,16.7355597 C63.5013499,16.7355597 64.2018426,16.6760384 64.8728939,16.5741183 L64.8728939,13.373013 C64.2579913,13.4865519 63.6262652,13.5517808 62.9720374,13.5517808 C60.7763474,13.5517808 59.3068059,12.8301867 58.5388086,11.3653916"/>
      <path fill="#00A9CC" d="M64.716834,5.79739662 C64.634188,5.67121958 64.4888742,5.58846049 64.3370412,5.57643393 L61.2192076,5.33304882 C61.0444525,5.33304882 60.8846283,5.42518455 60.7929396,5.58010305 C60.6966245,5.74439819 60.7079805,5.95129592 60.8188059,6.10580673 L61.2810343,6.74056488 C58.7932445,8.52253526 56.1397423,9.42554701 53.396444,9.42554701 C47.8938652,9.42554701 43.7729244,5.75825932 43.7291831,5.7215681 C43.545175,5.55319615 43.2352001,5.54993471 43.0438317,5.71830665 C42.8528838,5.89034772 42.8284896,6.18224678 42.9893653,6.38221394 C43.1628587,6.59543071 47.3086142,11.6050056 53.7631985,11.6050056 C56.6829342,11.6050056 59.6060347,10.5623634 62.4525878,8.50480117 L62.8643454,9.09287993 C62.9646561,9.22517217 63.1169096,9.30466982 63.2883001,9.30466982 L63.3478135,9.30140838 C63.5349761,9.27633604 63.6935385,9.15382813 63.75873,8.9799525 L64.768146,6.22770313 C64.8219815,6.08399584 64.8055785,5.92765046 64.716834,5.79739662"/>
    </g>
  </g>
</svg>
