<svg width="400" height="103" viewBox="0 0 400 103" fill="none" xmlns="http://www.w3.org/2000/svg">
<path d="M143.949 79.2126C140.919 79.2126 138.101 78.616 135.497 77.4232C132.892 76.1783 130.765 74.4666 129.117 72.288C128.48 71.3546 128.161 70.4466 128.161 69.5649C128.161 68.32 128.666 67.2569 129.676 66.3752C130.686 65.4415 131.723 64.9746 132.785 64.9746C134.168 64.9746 135.656 65.7526 137.251 67.3086C138.261 68.2423 139.297 68.9169 140.361 69.3318C141.424 69.6949 142.62 69.8763 143.949 69.8763C145.49 69.8763 146.952 69.4872 148.334 68.7092C149.77 67.9312 150.913 66.8938 151.763 65.5972C152.614 64.2486 153.039 62.848 153.039 61.3958V28.7183C153.039 27.3696 153.544 26.2544 154.554 25.3726C155.564 24.439 156.734 23.9722 158.063 23.9722C159.551 23.9722 160.747 24.4131 161.651 25.2948C162.554 26.1766 163.006 27.3177 163.006 28.7183V61.3958C163.006 64.5078 162.156 67.4386 160.455 70.1875C158.754 72.9363 156.441 75.1412 153.518 76.8009C150.594 78.4089 147.404 79.2126 143.949 79.2126Z" fill="black"/>
<path d="M226.142 50.0092C226.142 55.1444 224.973 59.8644 222.633 64.1695C220.294 68.4229 217.052 71.7941 212.905 74.2838C208.812 76.7735 204.187 78.0184 199.031 78.0184C193.875 78.0184 189.223 76.7735 185.077 74.2838C180.984 71.7941 177.767 68.4229 175.429 64.1695C173.143 59.8644 172 55.1444 172 50.0092C172 44.8741 173.143 40.1801 175.429 35.9269C177.767 31.6218 180.984 28.2243 185.077 25.7345C189.223 23.2448 193.875 22 199.031 22C204.187 22 208.812 23.2448 212.905 25.7345C217.052 28.2243 220.294 31.6218 222.633 35.9269C224.973 40.1801 226.142 44.8741 226.142 50.0092ZM215.776 50.0092C215.776 46.5338 215.058 43.3961 213.623 40.5949C212.188 37.7421 210.194 35.4858 207.643 33.8261C205.091 32.1663 202.221 31.3363 199.031 31.3363C195.788 31.3363 192.891 32.1663 190.34 33.8261C187.841 35.4341 185.874 37.6644 184.439 40.5172C183.057 43.3701 182.366 46.5338 182.366 50.0092C182.366 53.4846 183.057 56.6484 184.439 59.5012C185.874 62.3541 187.841 64.6104 190.34 66.2701C192.891 67.8781 195.788 68.6821 199.031 68.6821C202.221 68.6821 205.091 67.8521 207.643 66.1924C210.194 64.5326 212.188 62.3021 213.623 59.5012C215.058 56.6484 215.776 53.4846 215.776 50.0092Z" fill="black"/>
<path d="M268.941 48.2469C271.758 49.336 274.044 50.9958 275.798 53.2263C277.606 55.4566 278.509 58.3355 278.509 61.8623C278.509 68.0349 276.702 72.3401 273.087 74.7778C269.472 77.2155 265.166 78.4346 260.169 78.4346H240.314C238.932 78.4346 237.763 77.9938 236.806 77.1121C235.902 76.1783 235.45 75.0372 235.45 73.6886V28.7183C235.45 27.3696 235.902 26.2544 236.806 25.3726C237.763 24.439 238.932 23.9722 240.314 23.9722H260.408C270.509 23.9722 275.559 28.5886 275.559 37.8212C275.559 40.1552 274.974 42.23 273.805 44.0455C272.688 45.8092 271.067 47.2095 268.941 48.2469ZM265.193 39.5329C265.193 37.4063 264.635 35.824 263.518 34.7869C262.455 33.6977 260.94 33.1529 258.973 33.1529H245.816V45.2903H259.213C260.807 45.2903 262.189 44.7715 263.359 43.7343C264.581 42.6969 265.193 41.2966 265.193 39.5329ZM260.169 69.4872C262.668 69.4872 264.608 68.8389 265.99 67.5421C267.426 66.2452 268.143 64.3521 268.143 61.8623C268.143 58.8023 267.319 56.8052 265.671 55.8715C264.023 54.938 262.003 54.4712 259.611 54.4712H245.816V69.4872H260.169Z" fill="black"/>
<path d="M296.889 74.3303C296.889 75.7172 296.413 76.8912 295.464 77.8514C294.515 78.7583 293.414 79.2117 292.164 79.2117C290.816 79.2117 289.689 78.7583 288.789 77.8514C287.94 76.8912 287.516 75.7172 287.516 74.3303V28.075C287.516 26.6878 287.966 25.5408 288.866 24.6338C289.764 23.6735 290.913 23.1934 292.316 23.1934C293.566 23.1934 294.638 23.6735 295.539 24.6338C296.439 25.5408 296.889 26.6878 296.889 28.075V74.3303Z" fill="black"/>
<path d="M348.731 26.6173C350.383 27.4472 351.203 28.7699 351.203 30.5853C351.203 31.6744 350.807 32.7379 350.01 33.7753C349.158 34.8644 348.069 35.409 346.738 35.409C345.835 35.409 344.932 35.1759 344.029 34.709C341.425 33.5162 338.606 32.9193 335.575 32.9193C331.854 32.9193 328.613 33.6976 325.846 35.2536C323.082 36.7576 320.958 38.9104 319.469 41.7113C317.981 44.4602 317.236 47.6244 317.236 51.2033C317.236 57.3239 318.91 61.9659 322.259 65.1302C325.663 68.2942 330.102 69.8762 335.575 69.8762C338.819 69.8762 341.637 69.2796 344.029 68.0867C344.986 67.6719 345.835 67.4642 346.581 67.4642C347.963 67.4642 349.132 68.0347 350.087 69.1759C350.884 70.1616 351.286 71.2247 351.286 72.3659C351.286 73.1959 351.074 73.9479 350.646 74.6222C350.222 75.2965 349.611 75.815 348.814 76.1782C344.668 78.201 340.255 79.2125 335.575 79.2125C330.365 79.2125 325.583 78.149 321.224 76.0227C316.863 73.8442 313.382 70.6542 310.778 66.4527C308.172 62.2513 306.87 57.1684 306.87 51.2033C306.87 45.9127 308.092 41.1667 310.538 36.9653C313.038 32.7639 316.464 29.4962 320.826 27.162C325.184 24.776 330.102 23.583 335.575 23.583C340.31 23.583 344.691 24.5944 348.731 26.6173Z" fill="black"/>
<path d="M400 28.5626C400 29.6 399.707 30.5597 399.122 31.4414L382.46 54.7046V73.6886C382.46 75.0371 382.007 76.1783 381.104 77.112C380.201 77.9937 379.111 78.4346 377.835 78.4346C376.505 78.4346 375.36 77.9937 374.403 77.112C373.502 76.1783 373.049 75.0371 373.049 73.6886V53.6154L356.462 32.1417C355.507 30.8968 355.028 29.6777 355.028 28.4848C355.028 27.1362 355.561 26.021 356.622 25.1392C357.74 24.2056 358.91 23.7388 360.132 23.7388C361.623 23.7388 362.922 24.4649 364.04 25.9173L378.073 44.8234L391.231 26.0729C392.347 24.5168 393.674 23.7388 395.217 23.7388C396.493 23.7388 397.609 24.2056 398.566 25.1392C399.524 26.0729 400 27.214 400 28.5626Z" fill="black"/>
<path d="M0 50.6683C0 26.7831 0 14.8405 7.44855 7.42023C14.8971 0 26.8853 0 50.8617 0H52.3877C76.3642 0 88.3524 0 95.801 7.42023C103.249 14.8405 103.249 26.7831 103.249 50.6683V52.1886C103.249 76.0741 103.249 88.0166 95.801 95.4369C88.3524 102.857 76.3642 102.857 52.3877 102.857H50.8617C26.8853 102.857 14.8971 102.857 7.44855 95.4369C0 88.0166 0 76.0741 0 52.1886V50.6683Z" fill="#003BAE"/>
<path fill-rule="evenodd" clip-rule="evenodd" d="M57.1582 26.8304H46.9707C42.048 26.8304 38.0569 30.3866 38.0569 34.7737V41.582C38.0569 45.9686 42.048 49.5249 46.9707 49.5249H57.1582C62.0815 49.5249 66.0721 45.9686 66.0721 41.582V34.7737C66.0721 30.3866 62.0815 26.8304 57.1582 26.8304ZM46.9707 16.6182C35.7182 16.6182 26.5962 24.7468 26.5962 34.7737V41.582C26.5962 51.6089 35.7182 59.7372 46.9707 59.7372H57.1582C68.411 59.7372 77.533 51.6089 77.533 41.582V34.7737C77.533 24.7468 68.411 16.6182 57.1582 16.6182H46.9707Z" fill="white"/>
<path d="M96.0084 95.6425C103.251 88.4276 103.251 76.8105 103.251 53.5756C103.251 45.4862 96.6665 38.937 88.5563 38.937H14.7056C6.58527 38.937 0.0112305 45.4959 0.0112305 53.5756C0.0112305 76.8105 0.011225 88.4276 7.25365 95.6425C14.4961 102.857 26.1578 102.857 49.4813 102.857H53.7807C77.104 102.857 88.7657 102.857 96.0084 95.6425Z" fill="#029AEB"/>
<path fill-rule="evenodd" clip-rule="evenodd" d="M14.0682 64.1005C15.3596 61.4262 18.5344 60.3247 21.1593 61.6405L23.7788 62.9536C41.4722 71.8225 62.204 71.8225 79.8977 62.9536L82.5171 61.6405C85.1419 60.3247 88.3167 61.4262 89.6081 64.1005C90.8996 66.775 89.8186 70.0096 87.1935 71.3253L84.5741 72.6385C63.9315 82.9856 39.7446 82.9856 19.1022 72.6385L16.4827 71.3253C13.8578 70.0096 12.7768 66.775 14.0682 64.1005Z" fill="white"/>
</svg>
