<svg xmlns="http://www.w3.org/2000/svg" width="198" height="31" fill-rule="evenodd"><path d="M189.762 31L180 18v13h-7V0h11.955c5.043 0 9.782 4.66 9.782 9.62 0 4.3-2.956 7.183-6.52 8.552L198 31h-8.238zM180 13h3.57c2.216 0 3.43-1.44 3.43-3s-1.258-3-3.43-3H180v6zm-30 18V5h16.002v6H156v4h8v6h-8v4h10.002v6zM125 5v6h6v20h6V11h6V5zM99 27l3.5-4c.532.447 2.82 2 6 2 2.16 0 2.813-.83 2.813-1.62 0-.82-.645-1.548-2.925-2.358l-2-.714c-3.7-1.315-6.053-3.774-6.053-7.428C100.326 8.4 104.153 5 109.5 5c4.82 0 7.2 2.25 7.5 2.5l-3 4.5c-.652-.426-2.507-1.5-4.5-1.5-1.865 0-2.5 1.088-2.5 1.998 0 1.185 1.015 1.688 2.98 2.387l2.02.615c3.807 1.353 6 4.163 6 7.5 0 4.565-4.018 8-9.5 8-6.058 0-8.973-3.5-9.5-4zm-28 4h6V18l15 13V5h-5.974L86 18 71 5z" fill="#7046ae"/><path d="M38 18c0 7.18 5.733 13 13 13s13-5.82 13-13S58.267 5 51 5s-13 5.82-13 13zm13 7a6.94 6.94 0 0 1-7-7 6.94 6.94 0 0 1 7-7 6.94 6.94 0 0 1 7 7 6.94 6.94 0 0 1-7 7" fill="#00b6b4"/><path fill="#7046ae" d="M31 0L15.5 14.5 0 0v31h7V16l8.5 7.5L24 16v15h7z"/></svg>