<svg xmlns="http://www.w3.org/2000/svg" viewBox="0 0 175 45">
  <g fill="#279B37" fill-rule="nonzero">
    <path d="M66.8934911 35.2674419h-4.3491124v-2.7209303h-.1035503c-1.4497041 1.9883721-4.2455621 3.3488372-6.8343195 3.3488372-3.1065089 0-5.591716-1.2558139-7.352071-3.3488372-1.5532545-1.8837209-2.4852071-4.5-2.4852071-7.2209302 0-2.7209302.724852-5.0232558 2.5887574-7.1162791 2.0710059-2.3023256 4.556213-3.4534883 7.4556213-3.4534883 2.6923077 0 5.0739645 1.2558139 6.7307692 3.4534883v-2.8255814h4.3491124v19.883721zM56.6420118 19.5697674c-3.52071 0-6.0059171 2.6162791-6.0059171 6.0697675 0 3.244186 2.6923077 5.7558139 5.9023668 5.7558139 3.4171598 0 5.7988166-2.5116279 5.7988166-5.9651162 0-3.3488373-2.3816568-5.9651163-5.6952663-5.8604652zm33.9644971 15.6976745h-4.4526627v-2.7209303h-.1035503c-1.4497042 2.1976744-4.0384616 3.3488372-6.627219 3.3488372-2.8994083 0-5.4881657-1.3604651-7.2485207-3.3488372-1.6568047-1.8837209-2.6923077-4.5-2.6923077-7.116279 0-2.6162791.9319527-5.2325582 2.6923077-7.2209303 1.760355-1.9883721 4.6597633-3.3488372 7.352071-3.3488372 2.2781065 0 4.6597633.9418605 6.2130178 2.7209302V8.89534884h4.7633136V35.2674419h.1035503zM80.147929 19.5697674c-3.1065089 0-5.7988166 2.7209303-5.7988166 5.755814 0 3.244186 2.4852071 6.0697674 5.7988166 6.0697674 3.3136095 0 5.9023669-2.7209302 5.9023669-5.9651162.1035503-3.3488373-2.5887574-5.8604652-5.9023669-5.8604652zm13.4615385 11.5116279l8.9053255-11.3023255h-7.8698226v-4.1860465h13.5650886v4.1860465l-8.801775 11.3023255h9.526627v4.1860466H93.6094675v-4.1860466zm35.6213015-15.5930232v19.7790698h-4.452662v-2.0930233h-.103551c-1.035503 1.8837209-2.899408 2.7209302-5.073964 2.7209302-2.381657 0-4.659764-.9418604-6.316568-2.7209302-1.760355-1.8837209-1.863906-3.9767442-1.863906-6.4883721V15.4883721h4.763314v9.7325581c0 1.255814 0 2.9302326.621302 4.0813954.621302 1.2558139 1.967455 1.9883721 3.417159 1.9883721 3.624261 0 4.142012-3.2441861 4.142012-6.0697675v-9.7325581h4.866864zm3.831361 0h4.452663v1.7790698h.10355c1.242604-1.6744186 3.31361-2.5116279 5.488166-2.5116279 2.174556 0 4.245562.9418604 5.695266 2.5116279.207101.2093023.310651.3139534.517752.5232558 1.553254 2.0930232 1.553254 4.6046511 1.553254 7.116279v10.255814h-4.763314v-9.3139535c0-1.5697674 0-3.4534884-.828402-4.8139535-.724852-1.0465116-1.967456-1.6744186-3.210059-1.6744186-1.346154 0-2.692308.627907-3.31361 1.7790698-.828402 1.3604651-.828402 3.4534884-.828402 5.0232558v9h-4.763314V15.4883721h-.10355zM175 35.2674419h-4.349112v-2.7209303h-.103551c-1.449704 1.9883721-4.245562 3.3488372-6.834319 3.3488372-3.106509 0-5.591716-1.2558139-7.352071-3.3488372-1.553255-1.8837209-2.485207-4.5-2.485207-7.2209302 0-2.7209302.724852-5.0232558 2.588757-7.1162791 2.071006-2.3023256 4.556213-3.4534883 7.455621-3.4534883 2.692308 0 5.073965 1.2558139 6.73077 3.4534883v-2.8255814H175v19.883721zm-10.35503-15.6976745c-3.52071 0-6.005917 2.6162791-6.005917 6.0697675 0 3.244186 2.692308 5.7558139 5.902367 5.7558139 3.41716 0 5.798817-2.5116279 5.798817-5.9651162.10355-3.3488373-2.278107-5.9651163-5.695267-5.8604652zM41.0059172 23.2325581c0-7.2209302-2.5887574-13.1860465-7.5591716-17.37209298C28.9940828 2.09302326 22.6775148 0 15.739645 0v5.75581395c5.5917159 0 10.4585799 1.56976745 13.8757396 4.50000005 3.6242604 3.0348837 5.4881657 7.5348837 5.4881657 12.9767441 0 8.7906977-7.2485207 15.9069768-16.0502959 15.9069768-7.2485207 0-13.25443783-5.8604651-13.25443783-13.0813954 0-2.8255814 1.13905325-5.5465116 3.10650887-7.4302325 2.07100596-1.9883721 4.76331366-3.0348837 7.66272186-3.0348837 2.4852071 0 4.6597634.7325581 6.2130178 1.988372 1.4497041 1.255814 2.2781065 3.1395349 2.2781065 5.3372094 0 3.7674418-2.795858 6.488372-6.7307692 6.488372v5.755814c7.1449704 0 12.5295858-5.2325581 12.5295858-12.244186 0-3.8720931-1.5532545-7.3255814-4.2455622-9.7325582-2.5887574-2.1976744-6.1094674-3.45348836-10.0443787-3.45348836-4.4526627 0-8.59467452 1.67441856-11.80473369 4.70930236C1.76035503 17.5813953 0 21.6627907 0 26.0581395 0 36.5232558 8.59467456 45 19.0532544 45c12.1153847 0 21.9526628-9.7325581 21.9526628-21.7674419z"/>
  </g>
</svg>
