<?xml version="1.0" encoding="UTF-8" standalone="no"?>
<svg
   xmlns:dc="http://purl.org/dc/elements/1.1/"
   xmlns:cc="http://creativecommons.org/ns#"
   xmlns:rdf="http://www.w3.org/1999/02/22-rdf-syntax-ns#"
   xmlns:svg="http://www.w3.org/2000/svg"
   xmlns="http://www.w3.org/2000/svg"
   xml:space="preserve"
   height="346.2171"
   width="453.02185"
   viewbox="0 0 432.21 353.618"
   version="1.1"
   id="svg2"><metadata
     id="metadata8"><rdf:RDF><cc:Work
         rdf:about=""><dc:format>image/svg+xml</dc:format><dc:type
           rdf:resource="http://purl.org/dc/dcmitype/StillImage" /><dc:title></dc:title></cc:Work></rdf:RDF></metadata><defs
     id="defs6"><clipPath
       id="clipPath16"
       clipPathUnits="userSpaceOnUse"><path
         id="path18"
         d="m 0,297.638 420.945,0 L 420.945,0 0,0 0,297.638 Z" /></clipPath></defs><g
     transform="matrix(1.25,0,0,-1.25,-37.39375,356.2646)"
     id="g10"><g
       id="g12"><g
         clip-path="url(#clipPath16)"
         id="g14"><path
           id="path20"
           style="fill:#3482bd;fill-opacity:1;fill-rule:evenodd;stroke:none"
           d="m 391.101,162.574 c -26.175,125.371 -156.917,136.349 -265.583,111.985 65.585,-56.736 126.342,-84.505 176.447,-48.533 -42.112,-9.489 -83.773,-16.001 -116.92,34.096 69.216,33.966 205.082,-17.928 200.439,-113.834 l -6.555,2.974 5.902,-8.365 c -0.82,-4.006 -2.346,-7.292 -4.435,-9.856 -0.185,0.007 -0.374,0.01 -0.572,0.01 -3.186,2.307 -2.679,8.17 -1.25,14.925 -3.591,-6.89 -5.578,-13.526 -4.252,-19.68 -19.642,-9.183 -28.809,10.663 -31.789,21.017 -1.1,-5.306 2.629,-17.011 2.629,-17.011 -12.641,6.885 -26.6,19.86 -39.295,39.377 5.724,-20.459 22.356,-36.107 39.541,-43.517 14.185,-5.15 20.268,-3.859 23.267,-3.797 16.156,0.35 27.525,15.794 22.426,40.209 m -34.214,18.292 c -4.603,-10.323 -2.465,-18.887 4.303,-26.23 -4.451,8.257 -5.524,15.502 -3.233,21.752 3.911,0.347 6.783,-0.527 8.786,-2.47 -1.026,0.107 -2.042,-0.041 -2.95,-0.405 1.218,-0.489 1.964,-1.485 1.77,-2.432 -0.246,-1.125 -1.728,-1.766 -3.324,-1.431 -0.643,0.136 -1.212,0.411 -1.643,0.769 -0.142,-0.34 -0.253,-0.689 -0.336,-1.065 -0.669,-3.153 1.428,-6.273 4.692,-6.959 2.061,-0.433 4.099,0.203 5.472,1.539 0.278,-3.41 0.099,-7.451 -0.423,-12.069 8.727,18.668 6.102,29.533 -13.114,29.001" /><path
           id="path22"
           style="fill:#3482bd;fill-opacity:1;fill-rule:evenodd;stroke:none"
           d="m 282.566,196.449 c -38.676,22.888 -89.466,24.459 -131.227,4.398 -18.19,53.548 -88.414,11.99 -52.679,-24.561 -13.726,-8.973 -27.203,-24.145 -34.687,-61.342 19.632,50.696 43.672,59.639 47.658,57.898 -19.844,36.904 23.672,49.601 36.97,16.735 44.208,25.016 96.311,27.274 134.308,4.166 l -0.343,2.706 z" /><path
           id="path24"
           style="fill:#3482bd;fill-opacity:1;fill-rule:nonzero;stroke:none"
           d="m 36.916,90.016 c 8.077,-0.938 8.346,-1.077 8.346,-9.287 l 0,-19.782 c 0,-9.161 -0.269,-19.395 -1.078,-30.293 -0.406,-5.123 -1.212,-8.081 -2.154,-9.29 -0.942,-1.214 -5.114,-1.349 -8.479,-1.349 -2.423,0 -3.636,-1.345 -3.636,-4.043 0,-4.437 3.5,-7.934 5.521,-7.934 1.075,0 2.29,0.401 3.093,0.935 7.271,4.443 18.446,13.875 23.829,26.254 2.96,7 4.042,12.793 4.042,24.36 l 0,39.851 C 56.034,97.557 45.532,95.669 36.916,94.598 l 0,-4.582 z" /><path
           id="path26"
           style="fill:#61ba52;fill-opacity:1;fill-rule:nonzero;stroke:none"
           d="m 111.228,42.363 c -6.869,0 -10.369,15.077 -10.369,31.229 0,12.658 3.5,19.385 7.674,19.385 5.659,0 9.966,-8.616 9.966,-32.711 0,-14.404 -3.775,-17.903 -7.271,-17.903 m -0.811,57.075 c -16.557,0 -33.114,-11.44 -33.114,-33.11 0,-15.344 11.044,-30.424 32.171,-30.424 16.562,0 32.583,10.901 32.583,32.44 0,17.097 -11.715,31.094 -31.64,31.094" /><path
           id="path28"
           style="fill:#61ba52;fill-opacity:1;fill-rule:nonzero;stroke:none"
           d="m 183.787,42.363 c -6.873,0 -10.37,15.077 -10.37,31.229 0,12.658 3.497,19.385 7.674,19.385 5.657,0 9.965,-8.616 9.965,-32.711 0,-14.404 -3.773,-17.903 -7.269,-17.903 m -0.811,57.075 c -16.561,0 -33.119,-11.44 -33.119,-33.11 0,-15.344 11.044,-30.424 32.18,-30.424 16.557,0 32.574,10.901 32.574,32.44 0,17.097 -11.712,31.094 -31.635,31.094" /><path
           id="path30"
           style="fill:#3482bd;fill-opacity:1;fill-rule:nonzero;stroke:none"
           d="m 254.056,42.758 c -2.554,0 -4.713,1.356 -5.925,4.724 -0.406,1.206 -0.811,3.502 -0.811,5.649 l 0,35.545 c 1.085,0.533 2.426,0.808 3.773,0.808 5.923,0 14.138,-4.043 14.138,-24.504 0,-14.276 -4.714,-22.222 -11.175,-22.222 m 5.919,56.68 c -3.361,0 -5.652,-1.349 -8.075,-2.555 l -4.58,-2.154 0,37.56 c -11.436,-1.884 -22.071,-3.767 -29.478,-4.716 l 0,-4.842 c 8.082,-0.543 8.351,-0.672 8.351,-8.618 l 0,-72.967 c 8.479,-3.636 16.152,-5.242 24.358,-5.242 21.816,0 37.567,14.534 37.567,34.595 0,15.88 -11.579,28.939 -28.143,28.939" /><path
           id="path32"
           style="fill:#3482bd;fill-opacity:1;fill-rule:nonzero;stroke:none"
           d="m 321.9,51.913 0,80.376 c -11.441,-1.884 -22.075,-3.767 -29.477,-4.716 l 0,-4.842 c 8.074,-0.543 8.345,-0.672 8.345,-8.618 l 0,-62.2 c 0,-7.67 -0.675,-8.33 -7.808,-9.155 l 0,-5.248 36.752,0 0,5.248 c -7.135,0.825 -7.812,1.485 -7.812,9.155" /><path
           id="path34"
           style="fill:#3482bd;fill-opacity:1;fill-rule:nonzero;stroke:none"
           d="m 361.884,92.439 c 3.362,0 7.54,-6.46 7.54,-12.388 0,-2.276 -0.538,-2.689 -2.827,-2.824 l -11.981,-0.404 c 0.135,11.175 4.305,15.616 7.268,15.616 m 9.424,-42.126 c -7.535,0 -16.692,7.259 -16.962,19.375 12.925,0.544 29.214,1.887 31.23,2.289 2.827,0.548 3.367,0.812 3.367,5.385 0,12.654 -11.58,22.076 -22.346,22.076 -18.175,0 -32.712,-15.349 -32.712,-33.792 0,-16.826 11.712,-29.742 30.694,-29.742 4.575,0 15.615,2.955 24.1,15.206 l -2.563,4.313 c -5.516,-3.365 -9.688,-5.11 -14.808,-5.11" /></g></g></g></svg>