<svg width="135" height="50" viewBox="0 0 603 110" xmlns="http://www.w3.org/2000/svg"><defs><linearGradient x1="0%" y1="0%" x2="100%" y2="100%" id="a"><stop stop-color="#7117EA" offset="0%"/><stop stop-color="#EA6060" offset="100%"/></linearGradient></defs><g fill="none" fill-rule="evenodd"><g fill="#333" fill-rule="nonzero"><path d="M291.835 6.053c0-3.235-2.68-5.857-5.987-5.857h-89.13c-3.307 0-5.987 2.622-5.987 5.857 0 3.234 2.68 5.856 5.987 5.856h33.971c1.874 0 3.393 1.486 3.393 3.32v85.024c0 3.846 3.188 6.964 7.12 6.964s7.12-3.118 7.12-6.964V15.229c0-1.834 1.519-3.32 3.394-3.32h34.132c3.307 0 5.987-2.622 5.987-5.856"/><path d="M303.483 95.37c-15.947 0-28.874-12.456-28.874-27.821 0-15.365 12.927-27.82 28.874-27.82 15.945 0 28.872 12.455 28.872 27.82s-12.927 27.82-28.872 27.82m36.094-65.585c-3.025 0-5.607 1.723-6.656 4.157l.002-.047c-.481 1.098-1.609 1.868-2.924 1.868a3.24 3.24 0 0 1-1.917-.62l-.004.004c-6.894-4.866-15.396-7.742-24.595-7.742-23.012 0-41.665 17.974-41.665 40.145 0 22.172 18.653 40.145 41.665 40.145 9.029 0 17.384-2.77 24.208-7.473l.002.002a3.248 3.248 0 0 1 1.948-.52c1.296.068 2.366.876 2.797 1.975.24 3.431 3.34 6.147 7.14 6.147 3.956 0 7.164-2.944 7.164-6.574V36.358c0-3.63-3.208-6.574-7.165-6.574M365.6.279c-4.257 0-7.707 2.981-7.707 6.659v94.14c0 3.677 3.45 6.66 7.708 6.66 4.257 0 7.708-2.983 7.708-6.66V6.938c0-3.678-3.45-6.66-7.708-6.66M429.564 33.265c0-3.855-3.58-6.747-7.458-6.05a41.247 41.247 0 0 0-16.73 7.069l-.005-.003a3.157 3.157 0 0 1-1.884.618 3.125 3.125 0 0 1-2.878-1.865c-1.045-2.405-3.572-4.105-6.53-4.105-3.892 0-7.047 2.94-7.047 6.564v64.794c0 3.626 3.155 6.564 7.047 6.564s7.046-2.938 7.046-6.564v-4.789l.037-28.861c0-13.632 10.04-24.97 23.283-27.327 2.973-.53 5.119-3.089 5.119-6.045M561.296 27.112c-23.011 0-41.666 17.85-41.666 39.87 0 22.019 18.655 39.87 41.666 39.87 23.012 0 41.667-17.851 41.667-39.87 0-22.02-18.655-39.87-41.667-39.87m0 12.462c15.794 0 28.643 12.295 28.643 27.408 0 15.112-12.85 27.407-28.643 27.407-15.793 0-28.642-12.295-28.642-27.407 0-15.113 12.849-27.408 28.642-27.408m-91.702-12.462c-23.012 0-41.666 17.85-41.666 39.87 0 22.019 18.654 39.87 41.666 39.87 23.012 0 41.666-17.851 41.666-39.87 0-22.02-18.654-39.87-41.666-39.87m0 12.462c15.793 0 28.642 12.295 28.642 27.408 0 15.112-12.849 27.407-28.642 27.407-15.794 0-28.642-12.295-28.642-27.407 0-15.113 12.848-27.408 28.642-27.408"/></g><path d="M118.052.001h-.675c-4.758.027-8.599 3.779-8.59 8.388v.207c.009 4.553 3.86 8.189 8.563 8.146l.365-.001c21.546 0 39.159 17.165 39.024 38.029-.135 21-17.959 37.936-39.769 37.542-20.992-.38-38.063-17.058-38.276-37.388-.036-3.35.38-6.6 1.19-9.698 1.38-5.284-2.865-10.382-8.493-10.326h-.004c-3.922.04-7.337 2.626-8.292 6.309a53.016 53.016 0 0 0-1.691 13.522c.113 30.203 25.924 54.743 57.11 54.323 30.9-.416 55.784-24.931 55.512-55.011C173.758 24.384 148.681.174 118.052 0" fill="url(#a)"/><path d="M56.8 92.317a33.81 33.81 0 0 1-.366.002c-21.545 0-39.157-17.166-39.023-38.03.136-21 17.959-37.936 39.77-37.542 20.992.38 38.062 17.059 38.276 37.389.035 3.35-.38 6.6-1.19 9.698-1.381 5.283 2.865 10.382 8.492 10.325h.004c3.922-.039 7.338-2.626 8.292-6.309a53.017 53.017 0 0 0 1.692-13.522C112.634 24.126 86.822-.415 55.637.005 24.736.421-.148 24.936.124 55.017c.267 29.658 25.344 53.868 55.973 54.041.226.002.45.002.674 0 4.76-.026 8.6-3.778 8.591-8.388v-.206c-.009-4.554-3.86-8.19-8.562-8.147" fill="url(#a)"/><g fill="#333"><path d="M595.804 8.048h-1.907v3.284h-1.076V3.214h2.688c.914 0 1.617.208 2.11.625.492.416.738 1.022.738 1.817 0 .506-.136.946-.41 1.321-.272.376-.652.656-1.14.842l1.907 3.446v.067h-1.148l-1.762-3.284zm-1.907-.875h1.645c.532 0 .954-.138 1.268-.413.314-.275.471-.643.471-1.104 0-.502-.15-.886-.448-1.154-.3-.267-.732-.403-1.297-.407h-1.639v3.078z"/><path d="M595.5 15a7.5 7.5 0 1 1 0-15 7.5 7.5 0 0 1 0 15zm0-1.071a6.429 6.429 0 1 0 0-12.858 6.429 6.429 0 0 0 0 12.858z" fill-rule="nonzero"/></g></g></svg>